<svg width="56" height="56" viewBox="0 0 56 56" xmlns="http://www.w3.org/2000/svg">
<path d="M22.6333 2.30997C15.5167 3.89664 9.68333 7.83997 5.67 13.8133C-1.35333 24.3366 0.0466658 38.4533 9.00667 47.46C11.69 50.1666 15.7733 52.78 18.8533 53.7833C19.9967 54.1566 20.1367 54.1566 20.65 53.8066C21.21 53.4333 21.2333 53.34 21.2333 50.6566V47.9033L19.18 48.02C16.7767 48.1366 14.91 47.7166 13.79 46.76C13.3933 46.4333 12.6233 45.3133 12.0867 44.2866C11.2 42.56 10.5467 41.7666 8.72667 40.1566C8.12 39.62 8.09667 39.5966 8.51667 39.2933C9.52 38.5466 11.55 39.27 12.8333 40.81C15.0733 43.54 15.9367 44.2633 17.22 44.5433C18.3633 44.7766 19.4133 44.6833 21 44.2166C21.21 44.1466 21.49 43.6566 21.63 43.0966C21.77 42.56 22.1433 41.7433 22.4467 41.3L23.0067 40.4833L21.1167 40.11C17.15 39.2933 14.7 37.87 13.09 35.4433C11.5967 33.2033 11.1067 31.2666 11.0833 27.65C11.0833 24.2433 11.4567 22.8433 12.9267 20.93C13.58 20.09 13.65 19.8333 13.4633 19.3433C13.1133 18.5033 13.2067 14.9566 13.58 13.8833C13.8833 13.09 14.0467 12.95 14.6767 12.88C15.7267 12.7633 17.6867 13.44 19.67 14.56L21.3733 15.54L22.8667 15.19C24.99 14.7 31.36 14.7233 33.2733 15.19L34.72 15.5633L36.0733 14.7466C37.87 13.6733 40.1567 12.8333 41.3 12.8333C42.21 12.8333 42.21 12.8566 42.5833 14.0466C42.98 15.4233 43.05 17.92 42.7 19.11C42.5133 19.81 42.56 20.02 43.0733 20.6966C45.6167 24.0566 45.8967 29.6333 43.75 34.2066C42.3033 37.2166 39.2467 39.3166 35.14 40.0866L33.18 40.46L33.9033 41.7433L34.65 43.05L34.72 48.2533L34.8133 53.4566L35.3967 53.83C35.9333 54.18 36.05 54.18 37.17 53.7833C39.0367 53.1533 42.2333 51.4266 43.9833 50.0966C54.39 42.3033 57.75 28.3266 51.9867 16.7066C48.6033 9.86997 42.21 4.61997 34.8833 2.65997C31.6867 1.81997 25.6667 1.63331 22.6333 2.30997Z"/>
</svg>
