<svg width="56" height="56" viewBox="0 0 56 56" fill="none" xmlns="http://www.w3.org/2000/svg">
<g clip-path="url(#clip0_34_158)">
<path d="M28 56C43.4642 56 56 43.4642 56 28C56 12.5358 43.4642 0 28 0C12.5358 0 0 12.5358 0 28C0 43.4642 12.5358 56 28 56Z" fill="#C3EED7"/>
<path d="M15.925 15.3643V24.8889C17.3752 23.1599 19.1135 22.2896 21.1295 22.2896C22.1678 22.2896 23.0977 22.4879 23.9318 22.8811C24.7683 23.2719 25.3937 23.7736 25.816 24.3826C26.2407 24.9974 26.5277 25.6706 26.6828 26.4126C26.8368 27.1511 26.9138 28.3003 26.9138 29.8589V40.0428H22.4082V30.8704C22.4082 29.0504 22.3265 27.8978 22.155 27.4078C21.9943 26.9278 21.6756 26.5165 21.2508 26.2411C20.8168 25.9483 20.2767 25.8036 19.6245 25.8036C18.8778 25.8036 18.2082 25.9903 17.626 26.3613C17.031 26.7346 16.604 27.2923 16.3333 28.0378C16.058 28.7844 15.9203 29.8869 15.925 31.3464L15.9203 40.0428H11.4205V15.3643H15.9262M33.6665 15.3643V24.8889C35.1178 23.1599 36.855 22.2896 38.8698 22.2896C39.9047 22.2896 40.8415 22.4879 41.6768 22.8811C42.5098 23.2719 43.1352 23.7736 43.5552 24.3826C43.979 24.9933 44.274 25.6841 44.422 26.4126C44.5772 27.1511 44.6542 28.3003 44.6542 29.8589V40.0428H40.1532V30.8704C40.1532 29.0504 40.068 27.8978 39.8965 27.4078C39.7358 26.9271 39.416 26.5156 38.99 26.2411C38.5607 25.9483 38.0158 25.8036 37.3637 25.8036C36.6182 25.8036 35.9485 25.9903 35.3652 26.3613C34.7783 26.7346 34.349 27.2923 34.0748 28.0378C33.8042 28.7844 33.6665 29.8869 33.6665 31.3464V40.0428H29.1667V15.3643H33.6665Z" fill="#222222"/>
</g>
<defs>
<clipPath id="clip0_34_158">
<rect width="56" height="56" fill="white"/>
</clipPath>
</defs>
</svg>
