<svg width="174" height="44" viewBox="0 0 174 44" fill="none" xmlns="http://www.w3.org/2000/svg">
<g id="itmo-logo-dark 1">
<g id="Clip path group">
<mask id="mask0_30_119" style="mask-type:luminance" maskUnits="userSpaceOnUse" x="0" y="0" width="174" height="44">
<g id="clip0_145_1646">
<path id="Vector" d="M173.512 0H0.249573V44H173.512V0Z" fill="white"/>
</g>
</mask>
<g mask="url(#mask0_30_119)">
<g id="Group">
<path id="Vector_2" d="M45.5899 19.3484H58.3672V43.7054H67.7247V19.3484H80.7419V11.5562H45.5899V19.3484Z" fill="#CCCCCC"/>
<path id="Vector_3" d="M42.566 11.49H33.1241V43.7053H42.566V11.49Z" fill="#CCCCCC"/>
<path id="Vector_4" d="M0.249573 11.49V43.7053H9.69143V11.49H0.249573Z" fill="#CCCCCC"/>
<path id="Vector_5" d="M23.9287 11.49L9.69128 43.7053H19.4252L33.1174 11.49H29.3602H23.9287Z" fill="#CCCCCC"/>
<path id="Vector_6" d="M125.324 11.49H124.071H118.633L109.262 32.6963L99.8922 11.49H94.4606H90.7034H83.7596V43.7053H93.2014V17.3702L104.396 43.7053H114.129L125.324 17.3702V43.7053H134.765V11.49H127.821H125.324Z" fill="#CCCCCC"/>
<path id="Vector_7" d="M37.8418 -3.69705e-05C36.9293 0.0165461 36.0423 0.282502 35.2923 0.764452C34.5422 1.2464 33.9626 1.92288 33.6259 2.70898C33.2894 3.49508 33.2108 4.35578 33.4002 5.18307C33.5897 6.01037 34.0386 6.76739 34.6907 7.35917C35.3429 7.9509 36.1691 8.35103 37.0657 8.50922C37.9623 8.66748 38.8894 8.57687 39.7306 8.24873C40.5718 7.92052 41.2897 7.36942 41.7942 6.66462C42.2986 5.95979 42.5671 5.13263 42.566 4.28693C42.5523 3.13823 42.0471 2.04153 41.1613 1.23773C40.2755 0.433921 39.0816 -0.0112602 37.8418 -3.69705e-05Z" fill="#CCCCCC"/>
<path id="Vector_8" d="M164.356 28.0496C164.232 33.0039 160.651 36.3289 155.453 36.3289H155.258C152.461 36.2807 150.158 35.445 148.594 33.9238C147.029 32.4027 146.225 30.1539 146.276 27.4844C146.216 26.3717 146.411 25.2598 146.848 24.222C147.286 23.1843 147.956 22.2444 148.815 21.4646C149.674 20.6849 150.701 20.0829 151.83 19.6985C152.958 19.3142 154.162 19.1562 155.362 19.2351C156.557 19.1961 157.749 19.3827 158.865 19.7837C159.98 20.1848 160.996 20.7918 161.851 21.568C162.716 22.4412 163.383 23.4664 163.812 24.5829C164.241 25.6994 164.424 26.8844 164.35 28.0676L164.356 28.0496ZM165.089 13.7456C162.199 12.1982 158.914 11.3968 155.576 11.4248C154.709 11.4267 153.842 11.4729 152.98 11.563C147.912 12.0802 143.837 14.0402 140.865 17.3893C138.074 20.5338 136.867 24.3699 137.179 29.1017C137.296 32.3787 138.56 35.5316 140.781 38.0845C144.349 42.125 149.217 44.055 156.166 44.1572H156.245H156.322L157.224 44.049C158.436 43.9237 159.637 43.7228 160.819 43.4477C164.364 42.6271 167.532 40.7722 169.852 38.1567C172.11 35.519 173.385 32.2746 173.486 28.9094C173.791 22.0129 170.968 16.8842 165.096 13.7456" fill="#CCCCCC"/>
</g>
</g>
</g>
</g>
</svg>
