<svg width="231" height="44" viewBox="0 0 231 44" fill="none" xmlns="http://www.w3.org/2000/svg">
<g id="spbetu-logo-ru 1" clip-path="url(#clip0_30_32)">
<path id="Vector" d="M56.9632 14.6457C56.9632 9.99425 60.0474 7.35425 64.5793 7.35425C66.7823 7.35425 68.4188 7.79425 68.4188 7.79425V10.3714C68.4188 10.3714 67.1599 8.54853 64.7052 8.54853C61.7469 8.54853 59.9845 10.8742 59.9845 14.52C59.9845 18.04 61.7469 20.24 64.7681 20.24C67.3488 20.24 68.6076 18.8571 68.6076 18.8571L68.7965 20.5542C68.7965 20.5542 67.2229 21.4971 64.0128 21.4971C59.7956 21.4971 56.9632 18.9828 56.9632 14.6457Z" fill="#CCCCCC"/>
<path id="Vector_2" d="M83.7139 14.143C83.7139 18.2287 83.7768 19.863 83.9027 21.2458H80.8185C81.0073 19.9258 81.0073 18.2287 81.0073 14.143V8.92583H74.9019V14.143C74.9019 18.2287 74.9648 19.863 75.0907 21.2458H72.0065C72.1954 19.9258 72.1954 18.2287 72.1954 14.143C72.1954 10.3715 72.1324 8.86297 72.0065 7.54297H83.9027C83.7139 8.92583 83.7139 10.3715 83.7139 14.143Z" fill="#CCCCCC"/>
<path id="Vector_3" d="M98.0019 16.8456C98.0019 19.6113 95.9248 21.4971 92.8406 21.4971C89.6935 21.4971 87.4905 19.8628 87.4905 14.8971C87.4905 9.93134 89.2529 8.10848 93.47 7.73134L95.2954 7.54276C96.3654 7.41705 96.9319 6.97705 96.9319 6.97705V9.80562L93.2812 9.99419C90.0711 10.1828 88.8752 11.2513 88.8123 14.3942C89.5676 12.9485 91.1411 12.1313 93.0924 12.1313C96.1136 12.1942 98.0019 14.0799 98.0019 16.8456ZM95.2324 16.8456C95.2324 14.7085 94.2253 13.3256 92.8406 13.3256C91.3929 13.3256 90.4488 14.7085 90.4488 16.8456C90.4488 18.9828 91.4559 20.3656 92.8406 20.3656C94.2883 20.3656 95.2324 18.9828 95.2324 16.8456Z" fill="#CCCCCC"/>
<path id="Vector_4" d="M110.087 9.61714C108.136 8.92571 106.751 8.86286 104.8 8.86286H104.485V14.2057C104.485 18.2914 104.548 19.9257 104.674 21.3086H101.59C101.778 19.9886 101.778 18.2914 101.778 14.2057C101.778 10.4343 101.716 8.92571 101.59 7.60571H110.087V9.61714Z" fill="#CCCCCC"/>
<path id="Vector_5" d="M124.186 14.2057C124.186 18.7942 121.039 21.4971 116.381 21.4971C114.115 21.4971 112.416 21.0571 112.416 21.0571V18.5428C112.416 18.5428 113.863 20.3657 116.255 20.3657C119.214 20.3657 121.039 18.2285 121.165 14.7714H120.41C118.395 14.7714 116.885 14.8971 114.682 15.2114V13.0742C116.885 13.4514 118.395 13.5771 120.41 13.5771H121.102C120.85 10.4971 119.151 8.54853 116.318 8.54853C113.863 8.54853 112.479 10.2457 112.479 10.2457L112.29 8.29711C112.29 8.29711 113.801 7.35425 116.57 7.35425C121.291 7.35425 124.186 9.93139 124.186 14.2057Z" fill="#CCCCCC"/>
<path id="Vector_6" d="M137.089 7.60583V9.61725C135.516 8.98868 134.446 8.86297 133.313 8.86297H132.872V14.2058C132.872 18.2915 132.935 19.9258 133.061 21.3087H129.977C130.166 19.9887 130.166 18.2915 130.166 14.2058V8.80011H129.788C128.529 8.80011 127.459 8.98868 125.949 9.5544V7.54297H137.089V7.60583Z" fill="#CCCCCC"/>
<path id="Vector_7" d="M151.944 7.60571C150.685 9.61714 150.119 11.6286 148.545 15.2114C146.72 19.36 145.65 21.4343 142.691 21.4343C141.621 21.4343 141.118 21.0571 141.118 21.0571V18.8571C141.118 18.8571 141.936 19.8 143.132 19.8C144.076 19.8 144.768 19.36 145.272 18.5429L140.488 10.4343C139.859 9.42857 139.607 9.05143 138.663 7.60571H142.251C142.565 8.92571 142.817 9.49143 144.013 11.5657L146.72 16.0914C146.846 15.7143 147.034 15.2743 147.223 14.8343C148.671 10.9371 149.111 9.80571 149.174 7.66857H151.944V7.60571Z" fill="#CCCCCC"/>
<path id="Vector_8" d="M160.378 10.3086H161.385L159.434 14.0172L161.385 17.7257H160.378L157.798 14.0172L160.378 10.3086ZM163.525 10.3086H164.532L162.581 14.0172L164.532 17.7257H163.525L160.945 14.0172L163.525 10.3086Z" fill="#CCCCCC"/>
<path id="Vector_9" d="M179.261 21.2458H175.736C175.61 19.8001 175.547 19.1087 174.477 16.6573L171.834 10.2458L169.442 16.5944C168.561 18.9201 168.372 19.7373 168.183 21.2458H165.791C166.484 19.8001 166.735 19.2344 167.805 16.5944L171.519 7.54297H172.841V7.60583L172.904 7.54297H173.659L177.625 17.4115C178.317 19.2344 178.569 19.8001 179.261 21.2458Z" fill="#CCCCCC"/>
<path id="Vector_10" d="M192.542 14.2057C192.542 18.7942 189.395 21.4971 184.674 21.4971C182.408 21.4971 180.709 21.0571 180.709 21.0571V18.5428C180.709 18.5428 182.156 20.3657 184.548 20.3657C187.507 20.3657 189.332 18.2285 189.458 14.7714H188.702C186.688 14.7714 185.178 14.8971 182.975 15.2114V13.0742C185.178 13.4514 186.688 13.5771 188.702 13.5771H189.395C189.143 10.4971 187.444 8.54853 184.611 8.54853C182.156 8.54853 180.772 10.2457 180.772 10.2457L180.583 8.29711C180.583 8.29711 182.093 7.35425 184.863 7.35425C189.647 7.35425 192.542 9.93139 192.542 14.2057Z" fill="#CCCCCC"/>
<path id="Vector_11" d="M205.445 7.60583V9.61725C203.872 8.98868 202.802 8.86297 201.669 8.86297H201.228V14.2058C201.228 18.2915 201.291 19.9258 201.417 21.3087H198.333C198.522 19.9887 198.522 18.2915 198.522 14.2058V8.80011H198.144C196.885 8.80011 195.815 8.98868 194.304 9.5544V7.54297H205.445V7.60583Z" fill="#CCCCCC"/>
<path id="Vector_12" d="M220.677 14.143C220.677 18.2287 220.74 19.863 220.866 21.2458H217.782C217.971 19.9258 217.971 18.2287 217.971 14.143V10.183L211.488 21.2458H208.592C208.781 19.9258 208.781 18.4173 208.781 14.6458C208.781 10.5601 208.718 8.92583 208.592 7.54297H211.677C211.488 8.86297 211.488 10.5601 211.488 14.6458V18.6058L217.971 7.54297H220.866C220.677 8.92583 220.677 10.3715 220.677 14.143Z" fill="#CCCCCC"/>
<path id="Vector_13" d="M225.272 17.7885H224.265L226.216 14.0799L224.265 10.3713H225.272L227.853 14.0799L225.272 17.7885ZM228.419 17.7885H227.412L229.363 14.0799L227.412 10.3713H228.419L231 14.0799L228.419 17.7885Z" fill="#CCCCCC"/>
<path id="Vector_14" d="M63.8869 33.4401C63.8869 35.4515 63.8869 36.2058 64.0128 36.8972H62.5022C62.5651 36.2687 62.6281 35.4515 62.6281 33.4401V30.8629H59.6697V33.4401C59.6697 35.4515 59.6697 36.2058 59.7956 36.8972H58.285C58.3479 36.2687 58.4109 35.4515 58.4109 33.4401C58.4109 31.6172 58.4109 30.8629 58.285 30.2344H64.0757C63.8869 30.8629 63.8869 31.6172 63.8869 33.4401Z" fill="#CCCCCC"/>
<path id="Vector_15" d="M70.4959 35.7657V36.8342H66.1529C66.2158 36.2057 66.2788 35.3885 66.2788 33.3771C66.2788 31.5542 66.2787 30.8 66.1529 30.1714H70.3071V31.1771C69.3629 30.8 68.6706 30.8 67.7264 30.8H67.5376V33.0628C68.3559 33.0628 68.8594 33 69.6777 32.8114V33.9428C68.8594 33.7542 68.3559 33.7542 67.5376 33.7542V36.3314H67.9153C68.8594 36.2685 69.6147 36.2057 70.4959 35.7657Z" fill="#CCCCCC"/>
<path id="Vector_16" d="M76.979 32.0571C76.979 33.44 76.0349 34.1942 74.1466 34.1942H73.6431C73.6431 35.5142 73.6431 36.2057 73.7689 36.8342H72.2583C72.3213 36.2057 72.3842 35.3885 72.3842 33.3771C72.3842 31.5542 72.3842 30.8 72.2583 30.1714H74.5872C76.0978 30.2342 76.979 30.8628 76.979 32.0571ZM75.5943 32.1828C75.5943 31.3028 75.1537 30.8 74.2095 30.8H73.6431V33.5657H74.0207C75.0907 33.6285 75.5943 33.1257 75.5943 32.1828Z" fill="#CCCCCC"/>
<path id="Vector_17" d="M83.7139 34.9487C83.7139 36.2058 82.7068 36.8972 80.8185 36.8972H78.7414C78.8044 36.2687 78.8673 35.4515 78.8673 33.4401C78.8673 31.6172 78.8673 30.8629 78.7414 30.2344H81.1332C82.7068 30.2344 83.4621 30.7372 83.4621 31.7429C83.4621 32.4972 83.0215 33.1887 81.8886 33.3772C83.2733 33.5029 83.7139 34.1315 83.7139 34.9487ZM80.1891 30.8629V33.1258H80.6926C81.6368 33.1258 82.1403 32.6858 82.1403 31.8687C82.1403 31.1772 81.6997 30.8001 80.8185 30.8001H80.1891V30.8629ZM82.3921 35.0115C82.3921 34.1315 81.6997 33.6915 80.6926 33.6915H80.1891V36.2687H80.6926C81.7627 36.2687 82.3921 35.8915 82.3921 35.0115Z" fill="#CCCCCC"/>
<path id="Vector_18" d="M90.1341 34.7601C90.1341 36.1429 89.1899 36.8972 87.3016 36.8972H86.924H85.5392C85.6022 36.2687 85.6651 35.5144 85.6651 33.6915C85.6651 31.6801 85.6651 30.9258 85.5392 30.2344H87.0499C86.9869 30.9258 86.924 31.6172 86.924 32.8744H87.7422C89.2529 32.8744 90.1341 33.5658 90.1341 34.7601ZM88.7493 34.8858C88.7493 34.0058 88.3087 33.5029 87.3646 33.5029H86.861V36.2687H87.1757C88.3087 36.2687 88.7493 35.7658 88.7493 34.8858ZM92.2112 33.4401C92.2112 35.4515 92.2112 36.2058 92.3371 36.8972H90.8264C90.8894 36.2687 90.9523 35.4515 90.9523 33.4401C90.9523 31.6172 90.9523 30.8629 90.8264 30.2344H92.3371C92.2741 30.8629 92.2112 31.6172 92.2112 33.4401Z" fill="#CCCCCC"/>
<path id="Vector_19" d="M100.394 33.4399C100.394 35.4514 100.394 36.2057 100.52 36.8971H99.009C99.0719 36.2685 99.1349 35.4514 99.1349 33.4399V31.4914L95.9877 36.8971H94.603C94.6659 36.2685 94.7289 35.5142 94.7289 33.6914C94.7289 31.6799 94.7289 30.9257 94.603 30.2342H96.1136C96.0507 30.8628 95.9877 31.6799 95.9877 33.6914V35.6399L99.1349 30.2342H100.52C100.394 30.8628 100.394 31.6171 100.394 33.4399ZM95.6101 28.4114H96.806C96.806 28.4114 96.743 29.4171 97.5613 29.4171C98.3796 29.4171 98.3166 28.4114 98.3166 28.4114H99.5125C99.5125 28.4114 99.2608 29.9199 97.6243 29.9199C95.8619 29.9199 95.6101 28.4114 95.6101 28.4114Z" fill="#CCCCCC"/>
<path id="Vector_20" d="M110.842 33.4399C110.842 35.6399 109.332 37.0228 107.003 37.0228C105.87 37.0228 105.051 36.7714 105.051 36.7714V35.5142C105.051 35.5142 105.744 36.3942 106.94 36.3942C108.387 36.3942 109.269 35.3257 109.332 33.6914H108.954C107.947 33.6914 107.254 33.7542 106.184 33.8799V32.8114C107.254 32.9999 108.01 33.0628 108.954 33.0628H109.332C109.206 31.5542 108.387 30.6114 107.003 30.6114C105.807 30.6114 105.114 31.4285 105.114 31.4285L104.989 30.4857C104.989 30.4857 105.744 30.0457 107.066 30.0457C109.457 30.1085 110.842 31.3657 110.842 33.4399Z" fill="#CCCCCC"/>
<path id="Vector_21" d="M118.144 36.8971H116.444C116.381 36.2057 116.318 35.8914 115.815 34.6342L114.493 31.4914L113.36 34.5714C112.919 35.7028 112.856 36.08 112.731 36.8342H111.598C111.912 36.1428 112.038 35.8285 112.542 34.5714L114.367 30.1714H114.996H115.374L117.325 34.9485C117.703 35.8914 117.829 36.2057 118.144 36.8971Z" fill="#CCCCCC"/>
<path id="Vector_22" d="M123.808 35.7657V36.8342H119.465C119.528 36.2057 119.591 35.3885 119.591 33.3771C119.591 31.5542 119.591 30.8 119.465 30.1714H123.62V31.1771C122.675 30.8 121.983 30.8 121.039 30.8H120.85V33.0628C121.668 33.0628 122.172 33 122.99 32.8114V33.9428C122.172 33.7542 121.668 33.7542 120.85 33.7542V36.3314H121.228C122.172 36.2685 122.99 36.2057 123.808 35.7657Z" fill="#CCCCCC"/>
<path id="Vector_23" d="M127.081 30.2344C127.019 30.8629 126.956 31.6172 126.956 33.4401C126.956 35.4515 126.956 36.2058 127.081 36.8972H125.571C125.634 36.2687 125.697 35.4515 125.697 33.4401C125.697 31.6172 125.697 30.8629 125.571 30.2344H127.081ZM131.613 36.8972H129.599L127.144 33.3772L128.466 31.9944C129.222 31.2401 129.536 30.8629 129.851 30.2344H131.299C131.299 30.2344 130.48 30.9258 129.725 31.6801L128.403 33.0001L129.536 34.5087C130.292 35.5772 130.795 36.1429 131.613 36.8972Z" fill="#CCCCCC"/>
<path id="Vector_24" d="M137.593 30.2344V31.2401C136.838 30.9258 136.334 30.8629 135.768 30.8629H135.579V33.4401C135.579 35.4515 135.579 36.2058 135.705 36.8972H134.194C134.257 36.2687 134.32 35.4515 134.32 33.4401V30.8629H134.068C133.439 30.8629 132.935 30.9258 132.18 31.2401V30.2344H137.593Z" fill="#CCCCCC"/>
<path id="Vector_25" d="M143.887 32.0571C143.887 33.44 142.943 34.1942 141.055 34.1942H140.614C140.614 35.5142 140.614 36.2057 140.74 36.8342H139.229C139.292 36.2057 139.355 35.3885 139.355 33.3771C139.355 31.5542 139.355 30.8 139.229 30.1714H141.558C143.006 30.2342 143.887 30.8628 143.887 32.0571ZM142.502 32.1828C142.502 31.3028 142.062 30.8 141.118 30.8H140.551V33.5657H140.929C141.999 33.6285 142.502 33.1257 142.502 32.1828Z" fill="#CCCCCC"/>
<path id="Vector_26" d="M145.209 33.6286C145.209 31.4286 146.531 30.1086 148.797 30.1086C150.874 30.1086 152.133 31.4286 152.133 33.5029C152.133 35.7029 150.811 37.0229 148.545 37.0229C146.468 37.0229 145.209 35.7029 145.209 33.6286ZM150.685 33.6286C150.685 31.8058 149.93 30.7372 148.608 30.7372C147.412 30.7372 146.657 31.8058 146.657 33.5658C146.657 35.3886 147.412 36.4572 148.734 36.4572C149.93 36.3944 150.685 35.3258 150.685 33.6286Z" fill="#CCCCCC"/>
<path id="Vector_27" d="M158.427 30.2344V31.2401C157.672 30.9258 157.168 30.8629 156.602 30.8629H156.413V33.4401C156.413 35.4515 156.413 36.2058 156.539 36.8972H155.028C155.091 36.2687 155.154 35.4515 155.154 33.4401V30.8629H154.965C154.336 30.8629 153.832 30.9258 153.077 31.2401V30.2344H158.427Z" fill="#CCCCCC"/>
<path id="Vector_28" d="M164.344 35.7657V36.8342H160.001C160.063 36.2057 160.126 35.3885 160.126 33.3771C160.126 31.5542 160.126 30.8 160.001 30.1714H164.155V31.1771C163.211 30.8 162.518 30.8 161.574 30.8H161.385V33.0628C162.204 33.0628 162.707 33 163.525 32.8114V33.9428C162.707 33.7542 162.204 33.7542 161.385 33.7542V36.3314H161.763C162.77 36.2685 163.525 36.2057 164.344 35.7657Z" fill="#CCCCCC"/>
<path id="Vector_29" d="M171.456 36.8972H169.631C169.442 36.2687 169.253 35.9544 168.624 35.0115L168.12 34.1944L167.617 34.9487C167.05 35.8287 166.798 36.2687 166.672 36.8972H165.351C165.351 36.8972 165.791 36.3315 166.358 35.5144L167.68 33.6287L166.358 31.5544C165.854 30.7372 165.351 30.2344 165.351 30.2344H167.113C167.302 30.8629 167.491 31.1772 168.12 32.1201L168.561 32.7487L168.938 32.1829C169.505 31.3029 169.757 30.8629 169.883 30.2344H171.204C171.204 30.2344 170.764 30.8001 170.197 31.6172L168.938 33.3144L170.386 35.5144C170.953 36.3944 171.456 36.8972 171.456 36.8972Z" fill="#CCCCCC"/>
<path id="Vector_30" d="M178.695 33.4401C178.695 35.4515 178.695 36.2058 178.82 36.8972H177.31C177.373 36.2687 177.436 35.5144 177.436 33.7544H174.351C174.351 35.5144 174.352 36.2687 174.477 36.8972H172.967C173.03 36.2687 173.093 35.4515 173.093 33.4401C173.093 31.6172 173.093 30.8629 172.967 30.2344H174.477C174.414 30.8629 174.351 31.4915 174.351 33.0629H177.436C177.436 31.4915 177.436 30.8001 177.31 30.2344H178.82C178.695 30.8629 178.695 31.6172 178.695 33.4401Z" fill="#CCCCCC"/>
<path id="Vector_31" d="M186.814 33.4401C186.814 35.4515 186.814 36.2058 186.94 36.8972H185.429C185.492 36.2687 185.555 35.4515 185.555 33.4401V31.4915L182.408 36.8972H181.023C181.086 36.2687 181.149 35.5144 181.149 33.6915C181.149 31.6801 181.149 30.9258 181.023 30.2344H182.534C182.471 30.8629 182.408 31.6801 182.408 33.6915V35.6401L185.555 30.2344H186.94C186.814 30.8629 186.814 31.6172 186.814 33.4401Z" fill="#CCCCCC"/>
<path id="Vector_32" d="M193.801 33.44C193.801 35.4514 193.801 36.2057 193.927 36.8971H192.416C192.479 36.3314 192.542 35.5771 192.542 34.0057C192.227 34.1314 191.535 34.3828 190.717 34.3828C189.395 34.3828 188.891 33.6914 188.891 32.56C188.891 31.5542 188.891 30.8628 188.765 30.2342H190.276C190.213 30.9257 190.15 31.7428 190.15 32.4342C190.15 33.1885 190.465 33.5657 191.157 33.5657C191.724 33.5657 192.29 33.44 192.542 33.3142C192.542 31.5542 192.542 30.8 192.416 30.1714H193.927C193.864 30.8628 193.801 31.6171 193.801 33.44Z" fill="#CCCCCC"/>
<path id="Vector_33" d="M200.41 35.7657V36.8342H196.067C196.13 36.2057 196.193 35.3885 196.193 33.3771C196.193 31.5542 196.193 30.8 196.067 30.1714H200.221V31.1771C199.277 30.8 198.584 30.8 197.64 30.8H197.452V33.0628C198.27 33.0628 198.773 33 199.592 32.8114V33.9428C198.773 33.7542 198.27 33.7542 197.452 33.7542V36.3314H197.829C198.836 36.2685 199.592 36.2057 200.41 35.7657Z" fill="#CCCCCC"/>
<path id="Vector_34" d="M201.732 33.6915C201.732 31.4286 203.242 30.1086 205.445 30.1086C206.515 30.1086 207.271 30.3601 207.271 30.3601V31.6172C207.271 31.6172 206.641 30.7372 205.445 30.7372C203.998 30.7372 203.116 31.8686 203.116 33.6286C203.116 35.3258 203.998 36.3944 205.445 36.3944C206.704 36.3944 207.334 35.7029 207.334 35.7029L207.459 36.5201C207.459 36.5201 206.704 36.9601 205.131 36.9601C203.116 37.0229 201.732 35.7658 201.732 33.6915Z" fill="#CCCCCC"/>
<path id="Vector_35" d="M210.607 30.2344C210.544 30.8629 210.481 31.6172 210.481 33.4401C210.481 35.4515 210.481 36.2058 210.607 36.8972H209.096C209.159 36.2687 209.222 35.4515 209.222 33.4401C209.222 31.6172 209.222 30.8629 209.096 30.2344H210.607ZM215.075 36.8972H213.061L210.607 33.3772L211.928 31.9944C212.684 31.2401 212.998 30.8629 213.313 30.2344H214.761C214.761 30.2344 213.943 30.9258 213.187 31.6801L211.865 33.0001L212.998 34.5087C213.817 35.5772 214.257 36.1429 215.075 36.8972Z" fill="#CCCCCC"/>
<path id="Vector_36" d="M222.188 33.4401C222.188 35.4515 222.188 36.2058 222.314 36.8972H220.803C220.866 36.2687 220.929 35.4515 220.929 33.4401V31.4915L217.782 36.8972H216.397C216.46 36.2687 216.523 35.5144 216.523 33.6915C216.523 31.6801 216.523 30.9258 216.397 30.2344H217.908C217.845 30.8629 217.782 31.6801 217.782 33.6915V35.6401L220.929 30.2344H222.314C222.188 30.8629 222.188 31.6172 222.188 33.4401Z" fill="#CCCCCC"/>
<path id="Vector_37" d="M230.308 33.4399C230.308 35.4514 230.308 36.2057 230.434 36.8971H228.923C228.986 36.2685 229.049 35.4514 229.049 33.4399V31.4914L225.902 36.8971H224.517C224.58 36.2685 224.643 35.5142 224.643 33.6914C224.643 31.6799 224.643 30.9257 224.517 30.2342H226.028C225.965 30.8628 225.902 31.6799 225.902 33.6914V35.6399L229.049 30.2342H230.434C230.308 30.8628 230.308 31.6171 230.308 33.4399ZM225.587 28.4114H226.783C226.783 28.4114 226.72 29.4171 227.538 29.4171C228.356 29.4171 228.293 28.4114 228.293 28.4114H229.489C229.489 28.4114 229.238 29.9199 227.601 29.9199C225.839 29.9199 225.587 28.4114 225.587 28.4114Z" fill="#CCCCCC"/>
<path id="Vector_38" d="M25.8695 23.9485C25.9324 24.5142 25.9324 25.2056 25.9324 26.8399C25.9324 28.6628 25.9324 29.3542 25.8695 29.9828H27.1913C27.1283 29.3542 27.1283 28.6628 27.1283 26.8399C27.1283 25.1428 27.1283 24.5142 27.1913 23.9485H25.8695Z" fill="#CCCCCC"/>
<path id="Vector_39" d="M28.3872 28.3485C28.3872 29.417 29.2055 30.0456 30.5902 30.0456C32.0379 30.0456 32.8561 29.417 32.8561 28.2856C32.8561 27.5313 32.4155 27.0285 31.6602 26.777C32.2897 26.5256 32.6673 26.0856 32.6673 25.3942C32.6673 24.3885 31.912 23.8228 30.6531 23.8228C29.3314 23.8228 28.576 24.4513 28.576 25.457C28.576 26.0856 28.9537 26.5885 29.5831 26.8399C28.8278 27.0913 28.3872 27.5942 28.3872 28.3485ZM30.5902 24.3885C31.1567 24.3885 31.4714 24.8285 31.4714 25.5199C31.4714 26.2113 31.1567 26.5885 30.6531 26.5885C30.0867 26.5885 29.7719 26.1485 29.7719 25.457C29.7719 24.7656 30.0867 24.3885 30.5902 24.3885ZM30.5902 27.1542C31.2196 27.1542 31.5973 27.5942 31.5973 28.4113C31.5973 29.1656 31.2196 29.6056 30.5902 29.6056C29.9608 29.6056 29.5831 29.1656 29.5831 28.3485C29.6461 27.5942 30.0237 27.1542 30.5902 27.1542Z" fill="#CCCCCC"/>
<path id="Vector_40" d="M33.7373 28.3485C33.7373 29.417 34.5556 30.0456 35.9403 30.0456C37.388 30.0456 38.2063 29.417 38.2063 28.2856C38.2063 27.5313 37.7657 27.0285 37.0104 26.777C37.6398 26.5256 38.0174 26.0856 38.0174 25.3942C38.0174 24.3885 37.2621 23.8228 36.0033 23.8228C34.6815 23.8228 33.9262 24.4513 33.9262 25.457C33.9262 26.0856 34.3038 26.5885 34.9332 26.8399C34.1779 27.0913 33.7373 27.5942 33.7373 28.3485ZM36.0033 24.3885C36.5698 24.3885 36.8845 24.8285 36.8845 25.5199C36.8845 26.2113 36.5698 26.5885 36.0662 26.5885C35.4997 26.5885 35.185 26.1485 35.185 25.457C35.1221 24.7656 35.4368 24.3885 36.0033 24.3885ZM36.0033 27.1542C36.6327 27.1542 37.0104 27.5942 37.0104 28.4113C37.0104 29.1656 36.6327 29.6056 36.0033 29.6056C35.3738 29.6056 34.9962 29.1656 34.9962 28.3485C34.9962 27.5942 35.3738 27.1542 36.0033 27.1542Z" fill="#CCCCCC"/>
<path id="Vector_41" d="M41.7311 26.0857C41.0387 26.0857 40.5981 26.4 40.3463 26.7143C40.4093 25.3315 40.7869 24.3886 41.7311 24.3886C42.4864 24.3886 42.927 25.1429 42.927 25.1429V24.0743C42.927 24.0743 42.4864 23.8857 41.6681 23.8857C40.1575 23.8857 39.0245 25.08 39.0245 27.1543C39.0245 29.2286 39.9057 30.1715 41.3534 30.1715C42.6752 30.1715 43.4935 29.3543 43.4935 28.0343C43.5564 26.7772 42.864 26.0857 41.7311 26.0857ZM41.4793 29.48C40.8499 29.48 40.4722 28.9772 40.4093 27.3429C40.5981 27.0915 40.9757 26.84 41.4163 26.84C42.0458 26.84 42.3605 27.28 42.3605 28.0972C42.3605 28.9772 41.9828 29.48 41.4793 29.48Z" fill="#CCCCCC"/>
<path id="Vector_42" d="M37.5139 6.41143C28.9537 -2.13714 15.0433 -2.13714 6.48311 6.41143C2.26594 10.56 0.125886 15.9657 0 21.4343V21.4971C0 21.7486 0 21.9371 0 22.1886C0 22.0629 0 22 0 21.8743C0 23.76 0.188828 25.6457 0.692371 27.5314C3.77657 39.2857 15.7357 46.3257 27.506 43.3086C33.045 41.8629 37.5139 38.4686 40.4093 34.0057H40.3463C37.7027 37.7771 33.8003 40.6686 28.9537 41.9257C18.2534 44.6914 7.30136 38.28 4.53188 27.5943C4.02834 25.52 3.83951 23.5086 3.90245 21.4971H4.78365C4.72071 23.1314 4.90954 24.8286 5.35014 26.4629C7.86785 36.08 17.6869 41.8 27.2542 39.3486C30.779 38.4686 33.7373 36.52 36.0033 34.0057C33.1079 36.7086 29.2684 38.4057 24.9883 38.4057C20.3935 38.4057 16.2392 36.4571 13.2809 33.3771C13.218 33.3143 13.155 33.2514 13.155 33.2514C13.0921 33.1886 13.0292 33.1257 13.0292 33.0629C11.3926 31.24 10.0708 28.9771 9.44142 26.4C9.00082 24.7657 8.87493 23.1314 9.00082 21.4971H10.0079C9.94496 22.88 10.0708 24.2629 10.4485 25.6457C12.3368 33 19.8899 37.4629 27.2542 35.5143C28.5131 35.2 29.709 34.6971 30.779 34.0057H30.5272C29.0796 34.6343 27.4431 35.0114 25.8065 35.0114C19.1975 35.0114 13.8474 29.6686 13.8474 23.0686C13.8474 22.5029 13.9104 22 13.9733 21.4971H17.1204H30.0237H34.2409H40.1575H43.997C43.8082 16.0286 41.6681 10.56 37.5139 6.41143ZM6.98665 20.8057C7.42725 18.6057 8.43433 16.4686 10.1338 14.7714C14.6657 10.2457 22.0929 10.2457 26.6248 14.7714C27.8207 15.9657 28.7019 17.3486 29.2055 18.7943L6.98665 20.8057ZM30.1496 13.0114C24.7365 7.60571 16.0504 7.60571 10.6373 13.0114C8.43433 15.2114 7.17548 17.9771 6.79782 20.8686L3.21008 21.1829C3.65068 17.7886 5.16131 14.4571 7.8049 11.88C14.0992 5.59429 24.2959 5.59429 30.5902 11.88C32.4785 13.7657 33.8003 15.9657 34.5556 18.3543L33.5485 18.4171C32.8561 16.4686 31.7232 14.5829 30.1496 13.0114ZM38.7098 17.9771C37.9545 14.96 36.3809 12.1314 33.9891 9.74286C26.9395 2.70286 15.4839 2.70286 8.37139 9.74286C5.16131 12.9486 3.46185 17.0343 3.14714 21.1829L1.13297 21.3714L0 21.4343C0.251771 16.6571 2.203 12.0057 5.85368 8.36C13.6586 0.502858 26.373 0.502858 34.2409 8.36C36.9474 11.0629 38.7098 14.3943 39.5281 17.9143L38.7098 17.9771Z" fill="#CCCCCC"/>
</g>
<defs>
<clipPath id="clip0_30_32">
<rect width="231" height="44" fill="white"/>
</clipPath>
</defs>
</svg>
